<svg width="181" height="70" viewBox="0 0 181 70" fill="none" xmlns="http://www.w3.org/2000/svg">
<path d="M102.791 11.2049L98.9089 28.1012H98.4278L94.2692 11.2049H81.074L90.1799 35.2933H107.019L115.815 11.2049H102.791Z" fill="white"/>
<path d="M133.781 27.3787C133.517 27.9523 133.111 28.3652 132.561 28.6176C132.012 28.8705 131.301 28.9961 130.43 28.9961C129.56 28.9961 128.85 28.8705 128.3 28.6176C127.75 28.3652 127.338 27.9523 127.063 27.3787C126.788 26.8052 126.651 26.0023 126.651 24.9699C126.651 23.9605 126.782 23.1633 127.046 22.5783C127.309 21.9933 127.721 21.5689 128.283 21.305C128.844 21.0412 129.56 20.9093 130.43 20.9093C131.301 20.9093 132.012 21.0355 132.561 21.2878C133.111 21.5402 133.517 21.9646 133.781 22.5611C134.044 23.1581 134.176 23.9605 134.176 24.9699C134.176 26.0023 134.044 26.8052 133.781 27.3787ZM139.21 15.2829C136.862 14.5144 133.936 14.1301 130.43 14.1301C126.902 14.1301 123.964 14.5087 121.616 15.2657C119.268 16.0228 117.504 17.1928 116.324 18.7757C115.144 20.3587 114.555 22.4234 114.555 24.9699C114.555 27.4935 115.144 29.5467 116.324 31.1297C117.504 32.7126 119.268 33.8826 121.616 34.6397C123.964 35.3967 126.891 35.7753 130.397 35.7753C133.924 35.7753 136.862 35.3967 139.21 34.6397C141.559 33.8826 143.335 32.7126 144.537 31.1297C145.74 29.5467 146.341 27.5049 146.341 25.0043C146.341 22.4578 145.74 20.3931 144.537 18.8102C143.335 17.2272 141.559 16.0515 139.21 15.2829Z" fill="white"/>
<path d="M148.193 35.2935H160.289V9.14036H148.193V35.2935Z" fill="white"/>
<path d="M181 14.6118H177.323V8.79617L165.227 11.5835V14.6118H162.467V21.8727H165.227V35.2934H177.323V21.8727H181V14.6118Z" fill="white"/>
<path d="M92.5618 52.7114C92.4204 53.122 92.1976 53.4329 91.894 53.6451C91.5905 53.8573 91.1844 53.9634 90.6758 53.9634C90.0681 53.9634 89.5945 53.8114 89.256 53.5074C88.9169 53.2029 88.6764 52.7005 88.5355 52.0002C88.394 51.3005 88.3236 50.3134 88.3236 49.0402C88.3236 47.7245 88.3975 46.7059 88.5458 45.9844C88.6941 45.2629 88.9381 44.7502 89.2772 44.4456C89.6157 44.1416 90.0825 43.9897 90.6758 43.9897C91.3677 43.9897 91.8763 44.2019 92.2016 44.6263C92.5263 45.0507 92.7102 45.7653 92.7525 46.7696H96.3338C96.2628 45.5956 96.0366 44.6091 95.6552 43.8096C95.2737 43.0101 94.6741 42.3947 93.8545 41.9628C93.0349 41.5315 91.9261 41.3158 90.5269 41.3158C89.1569 41.3158 88.0338 41.5848 87.1575 42.1222C86.2818 42.6602 85.6317 43.5016 85.2085 44.6475C84.7847 45.7934 84.5728 47.2789 84.5728 49.1039C84.5728 50.9007 84.7915 52.3437 85.2291 53.4329C85.6672 54.5226 86.3276 55.3181 87.2108 55.8199C88.0933 56.3223 89.2486 56.5735 90.6758 56.5735C91.8619 56.5735 92.8614 56.386 93.6741 56.0109C94.4862 55.6364 95.1259 55.0422 95.5922 54.2289C96.0578 53.4157 96.3338 52.365 96.418 51.0774H92.8155C92.7875 51.7564 92.7027 52.3013 92.5618 52.7114Z" fill="white"/>
<path d="M97.5205 56.4041H100.995V40.2763H97.5205V56.4041Z" fill="white"/>
<path d="M108.857 50.8015C108.829 51.6647 108.741 52.3328 108.593 52.8072C108.444 53.2809 108.25 53.617 108.01 53.8149C107.77 54.0133 107.487 54.1119 107.162 54.1119C106.681 54.1119 106.346 53.9812 106.155 53.7191C105.964 53.4575 105.869 53.0796 105.869 52.584V43.9684H102.373V53.1146C102.373 54.3029 102.627 55.1873 103.136 55.7672C103.644 56.3476 104.414 56.6372 105.446 56.6372C106.137 56.6372 106.731 56.4955 107.226 56.2128C107.72 55.93 108.122 55.4454 108.433 54.7589C108.744 54.0735 108.949 53.1432 109.048 51.9686H109.239L109.429 56.4038H112.333V43.9684H108.857V50.8015Z" fill="white"/>
<path d="M120.226 53.2524C119.965 53.8397 119.559 54.1333 119.008 54.1333C118.613 54.1333 118.291 54.0054 118.044 53.7514C117.797 53.4967 117.61 53.0792 117.483 52.4993C117.395 52.1019 117.34 51.6081 117.313 51.0317V49.3203C117.339 48.757 117.391 48.2764 117.472 47.8945C117.591 47.3284 117.779 46.9149 118.033 46.6528C118.288 46.3912 118.606 46.2605 118.987 46.2605C119.566 46.2605 119.983 46.5575 120.237 47.1517C120.492 47.7453 120.619 48.7576 120.619 50.1863C120.619 51.6431 120.488 52.6657 120.226 53.2524ZM122.558 44.3185C122.042 43.9296 121.395 43.7352 120.619 43.7352C119.729 43.7352 119.022 43.9898 118.5 44.4991C117.977 45.0079 117.606 45.7506 117.387 46.7273C117.359 46.8523 117.338 46.9974 117.313 47.1328V40.2762H113.838V56.404H117.313V53.5988C117.34 53.7324 117.365 53.8735 117.398 53.9951C117.623 54.8514 117.984 55.5058 118.479 55.9583C118.973 56.4108 119.637 56.6374 120.47 56.6374C121.304 56.6374 121.985 56.4212 122.515 55.9899C123.045 55.5586 123.448 54.8583 123.723 53.889C123.999 52.9203 124.137 51.6362 124.137 50.0377C124.137 48.4674 124.002 47.2188 123.734 46.292C123.465 45.3657 123.074 44.7079 122.558 44.3185Z" fill="white"/>
<path d="M132.21 43.7564C131.404 43.7564 130.726 43.9439 130.175 44.3184C129.624 44.6935 129.197 45.3514 128.893 46.292C128.849 46.4302 128.814 46.5902 128.777 46.7422V40.2762H125.301V56.4039H128.777V49.5221C128.811 48.8797 128.885 48.3458 128.999 47.926C129.147 47.3817 129.359 46.9785 129.635 46.7164C129.91 46.4549 130.253 46.3241 130.663 46.3241C130.974 46.3241 131.217 46.3734 131.394 46.4726C131.57 46.5719 131.697 46.7198 131.775 46.9183C131.853 47.1161 131.892 47.3851 131.892 47.7247V56.4039H135.388V47.2366C135.388 46.0763 135.127 45.2063 134.605 44.6264C134.082 44.0466 133.283 43.7564 132.21 43.7564Z" fill="white"/>
<path d="M143.091 52.5097C142.971 53.0546 142.787 53.4434 142.54 53.6769C142.293 53.9103 141.979 54.0273 141.597 54.0273C141.23 54.0273 140.919 53.9103 140.665 53.6769C140.411 53.4434 140.227 53.0546 140.114 52.5097C140.001 51.9655 139.944 51.1906 139.944 50.1864C139.944 49.1959 140.001 48.4245 140.114 47.8733C140.227 47.3216 140.411 46.9321 140.665 46.7056C140.919 46.4796 141.23 46.3666 141.597 46.3666C141.993 46.3666 142.31 46.4762 142.551 46.6953C142.791 46.9149 142.971 47.3038 143.091 47.8624C143.211 48.4216 143.271 49.1959 143.271 50.1864C143.271 51.1906 143.211 51.9655 143.091 52.5097ZM144.522 44.3931C143.759 43.9543 142.784 43.7353 141.597 43.7353C140.411 43.7353 139.436 43.9543 138.673 44.3931C137.91 44.8313 137.341 45.5178 136.967 46.4515C136.592 47.3846 136.406 48.6298 136.406 50.1864C136.406 51.728 136.592 52.9697 136.967 53.9103C137.341 54.8515 137.91 55.5409 138.673 55.979C139.436 56.4178 140.411 56.6375 141.597 56.6375C142.784 56.6375 143.759 56.4178 144.522 55.979C145.285 55.5409 145.853 54.8515 146.228 53.9103C146.602 52.9697 146.789 51.7349 146.789 50.207C146.789 48.651 146.602 47.403 146.228 46.4618C145.853 45.5212 145.285 44.8313 144.522 44.3931Z" fill="white"/>
<path d="M154.291 50.8015C154.262 51.6647 154.174 52.3328 154.026 52.8072C153.877 53.2809 153.683 53.617 153.444 53.8149C153.203 54.0133 152.92 54.1119 152.595 54.1119C152.115 54.1119 151.779 53.9812 151.588 53.7191C151.398 53.4575 151.303 53.0796 151.303 52.584V43.9684H147.806V53.1146C147.806 54.3029 148.06 55.1873 148.569 55.7672C149.078 56.3476 149.847 56.6372 150.879 56.6372C151.571 56.6372 152.164 56.4955 152.659 56.2128C153.154 55.93 153.556 55.4454 153.867 54.7589C154.178 54.0735 154.382 53.1432 154.481 51.9686H154.672L154.863 56.4038H157.766V43.9684H154.291V50.8015Z" fill="white"/>
<path d="M166.645 49.8785C166.122 49.6169 165.472 49.3233 164.696 48.9975C164.158 48.814 163.738 48.6442 163.434 48.4888C163.13 48.3328 162.884 48.1458 162.693 47.9262C162.502 47.7071 162.407 47.4415 162.407 47.1301C162.421 46.8192 162.523 46.5715 162.714 46.3879C162.905 46.2038 163.204 46.1121 163.614 46.1121C163.939 46.1121 164.208 46.1723 164.42 46.2922C164.631 46.4126 164.787 46.6248 164.886 46.9288C164.985 47.2333 165.048 47.64 165.077 48.1487H168.319C168.206 46.5084 167.732 45.3619 166.899 44.7109C166.065 44.0605 164.971 43.7354 163.614 43.7354C162.569 43.7354 161.697 43.8942 160.997 44.2125C160.298 44.5308 159.786 44.9662 159.461 45.5173C159.136 46.0691 158.967 46.6994 158.952 47.406C158.952 48.1843 159.14 48.8352 159.514 49.3583C159.888 49.8819 160.333 50.2782 160.849 50.5472C161.365 50.8156 162.032 51.1058 162.851 51.4173C163.374 51.6432 163.787 51.8308 164.091 51.9793C164.395 52.1279 164.638 52.3154 164.822 52.542C165.006 52.7679 165.098 53.0226 165.098 53.3059C165.098 53.6735 164.981 53.942 164.748 54.1117C164.515 54.2815 164.173 54.3669 163.721 54.3669C163.339 54.3669 163.039 54.3067 162.82 54.1863C162.601 54.0664 162.432 53.8542 162.311 53.5497C162.191 53.2457 162.117 52.8316 162.089 52.308H158.826C158.91 53.369 159.161 54.2253 159.578 54.8757C159.994 55.5266 160.552 55.9866 161.252 56.2556C161.951 56.524 162.788 56.6582 163.763 56.6582C164.837 56.6582 165.733 56.5028 166.454 56.1913C167.175 55.8805 167.708 55.4526 168.054 54.9078C168.4 54.3635 168.573 53.716 168.573 52.9658C168.573 52.1881 168.382 51.544 168.001 51.0353C167.619 50.5254 167.168 50.1406 166.645 49.8785Z" fill="white"/>
<path d="M174.401 46.239C174.825 46.239 175.146 46.3594 175.365 46.5997C175.583 46.8406 175.739 47.226 175.831 47.7565C175.877 48.0209 175.91 48.3427 175.929 48.7218H172.703C172.744 47.9257 172.875 47.3235 173.108 46.9392C173.39 46.4724 173.821 46.239 174.401 46.239ZM179.275 49.4857C179.275 48.2549 179.113 47.2117 178.787 46.356C178.463 45.4997 177.94 44.8493 177.219 44.4036C176.499 43.9574 175.573 43.7349 174.443 43.7349C172.677 43.7349 171.374 44.2689 170.534 45.3374C169.692 46.4059 169.272 48.0502 169.272 50.2709C169.272 51.7282 169.439 52.9166 169.771 53.836C170.102 54.7559 170.65 55.4453 171.413 55.9053C172.176 56.3647 173.185 56.5947 174.443 56.5947C175.418 56.5947 176.251 56.4358 176.944 56.1175C177.636 55.7986 178.176 55.2933 178.565 54.5999C178.953 53.9071 179.183 53.0015 179.253 51.8837H176.096C176.054 52.4354 175.98 52.8742 175.873 53.1994C175.768 53.5251 175.598 53.7654 175.365 53.9209C175.132 54.0769 174.831 54.1543 174.464 54.1543C174.04 54.1543 173.697 54.0379 173.436 53.8039C173.175 53.571 172.984 53.1856 172.864 52.6476C172.766 52.2094 172.711 51.6164 172.692 50.8863H179.275V49.4857Z" fill="white"/>
<path d="M70.7288 6.60798V69.9995" stroke="white" stroke-width="1.68667" stroke-miterlimit="10"/>
<path d="M7.62882 60.3807C13.6752 65.1875 22.0938 68.085 28.2071 70C28.2071 70 42.6967 65.1869 48.7431 60.379C53.2018 56.8334 56.3702 52.2491 56.3696 46.2552C56.3679 31.1276 56.3668 21.7355 56.365 6.60853C46.2065 2.32366 37.029 0.0387039 27.651 0.0174866C27.6218 0.0174866 27.592 0.0180588 27.5634 0.0174866C18.1883 -0.250931 8.37681 2.59839 0.00458162 6.60853C0.00286342 21.7355 0.00114555 31.1276 7.76216e-08 46.2552C-0.000572656 52.2503 3.16836 56.8351 7.62882 60.3807Z" fill="white"/>
<path d="M0.00292969 16.8526L28.1757 45.8493L56.3725 16.8526V29.2776L28.1757 56.4401L0.00292969 29.3258V16.8526Z" fill="#202C4E"/>
<path fill-rule="evenodd" clip-rule="evenodd" d="M45.6146 51.7523C44.8672 52.4767 43.4216 52.4422 43.4216 52.4422L12.8285 51.9393L9.35082 51.9014C9.35082 51.9014 8.98026 51.9014 8.98943 51.2917C8.99973 50.631 9.27236 50.6763 9.27236 50.6763L12.9842 50.7601L43.6759 50.5955" fill="white"/>
<path d="M43.4607 52.5859C43.4378 52.5859 43.4235 52.5859 43.4183 52.5853L12.8257 52.0829L9.34923 52.0445C9.33319 52.0445 9.17512 52.0404 9.03823 51.9011C8.9065 51.7674 8.84236 51.5615 8.84637 51.2891C8.85152 50.953 8.92369 50.7242 9.06114 50.6095C9.15221 50.5332 9.24327 50.5303 9.2805 50.5332L12.9872 50.6169L43.6755 50.4523L43.6766 50.7391L12.9849 50.9037L9.249 50.8177C9.23697 50.8223 9.13846 50.9129 9.13274 51.2937C9.12586 51.7325 9.3309 51.7565 9.35438 51.7577L12.8297 51.7961L43.424 52.2985C43.4378 52.3003 44.8204 52.3226 45.5151 51.6493L45.7144 51.8552C44.9968 52.5503 43.715 52.5859 43.4607 52.5859Z" fill="#202C4E"/>
<path fill-rule="evenodd" clip-rule="evenodd" d="M44.5084 50.6018C45.0995 50.6277 46.0743 50.2755 45.2043 49.7054C44.9243 49.5219 44.5566 49.351 44.391 49.0424C44.1579 48.6082 44.4397 48.0037 44.8813 47.8403C46.7507 47.1515 48.5714 50.1614 47.2461 51.6262C46.6854 52.245 45.8549 52.4182 45.052 52.4406C44.9139 52.444 43.3584 52.4509 43.3584 52.3878V50.7573C43.3584 50.5026 44.2679 50.6093 44.5084 50.6018Z" fill="white"/>
<path d="M43.5105 52.2643C43.6818 52.2786 44.0718 52.2901 44.6852 52.2901C44.8702 52.2901 45.0111 52.2889 45.0483 52.2878C46.0099 52.2614 46.692 52.0114 47.1336 51.5239C47.6141 50.9928 47.6829 50.1829 47.318 49.3582C46.995 48.6281 46.2883 47.8917 45.4389 47.8917C45.2688 47.8917 45.0987 47.9226 44.9337 47.9834C44.7516 48.0511 44.589 48.2232 44.5099 48.4325C44.4378 48.6224 44.4435 48.8185 44.5254 48.9699C44.6382 49.1798 44.8759 49.3244 45.1056 49.4643C45.1686 49.5027 45.2299 49.54 45.2877 49.5779C45.6193 49.7952 45.7533 50.0201 45.6863 50.2449C45.5758 50.6171 44.9435 50.7559 44.5712 50.7559C44.5477 50.7559 44.5242 50.7553 44.5019 50.7542L44.4807 50.7547C44.4292 50.7547 44.3587 50.7519 44.2774 50.7479C44.1726 50.7438 44.05 50.7381 43.9286 50.7381C43.6462 50.7381 43.5443 50.7697 43.5105 50.7857V52.2643ZM44.6852 52.5952C43.2058 52.5952 43.2058 52.5631 43.2058 52.3876V50.757C43.2058 50.4336 43.7127 50.4336 43.9286 50.4336C44.0546 50.4336 44.1823 50.4387 44.2906 50.4433C44.3667 50.4468 44.4326 50.4496 44.4807 50.4496H44.5036C44.5334 50.4502 44.5523 50.4508 44.5712 50.4508C44.9429 50.4508 45.3507 50.3057 45.3948 50.1583C45.4171 50.0831 45.3123 49.9581 45.121 49.8331C45.0661 49.7969 45.0076 49.7614 44.9475 49.7253C44.6955 49.5715 44.4091 49.3972 44.2568 49.1144C44.1336 48.885 44.1222 48.5971 44.2253 48.3247C44.3364 48.0305 44.562 47.7959 44.8284 47.6972C45.0271 47.6244 45.2327 47.5871 45.4389 47.5871C46.2928 47.5871 47.16 48.249 47.5964 49.2349C48.0053 50.1588 47.9143 51.1144 47.3587 51.7286C46.8587 52.2809 46.1056 52.5637 45.0563 52.5929C45.0179 52.5935 44.8742 52.5952 44.6852 52.5952Z" fill="#202C4E"/>
<path d="M10.5836 50.7347C10.5836 50.7347 9.60194 50.4324 9.19015 50.4313C8.8677 50.4307 8.44788 50.4267 8.22337 50.5959C7.83048 50.8913 7.79382 51.7516 8.16953 51.973C8.3551 52.0825 8.81386 52.1582 9.11855 52.1582C9.42268 52.1582 10.5739 51.9993 10.5739 51.9993L9.02863 51.973L9.01088 50.6647L10.5836 50.7347Z" fill="#202C4E"/>
<path d="M9.10504 50.5031C8.79576 50.5031 8.44983 50.5146 8.26656 50.6528C8.08042 50.7933 7.96301 51.1099 7.98076 51.4242C7.99394 51.6536 8.07813 51.836 8.20585 51.9112C8.38168 52.0144 8.82784 52.0867 9.11821 52.0867C9.20584 52.0867 9.36621 52.0729 9.55005 52.0534L8.95842 52.0436L8.93837 50.5897L9.95097 50.6345C9.67548 50.5668 9.37251 50.5037 9.1898 50.5031H9.10504ZM9.11821 52.23C8.80264 52.23 8.33185 52.1515 8.13368 52.035C7.96129 51.9335 7.85362 51.7139 7.83758 51.4323C7.8204 51.1289 7.91948 50.7348 8.18065 50.5387C8.39943 50.3735 8.77228 50.3598 9.10504 50.3598H9.1898C9.6079 50.3609 10.5644 50.654 10.6045 50.666L11.1411 50.8312L9.08385 50.7394L9.09931 51.9026L10.5747 51.9278L10.5833 52.0706C10.5363 52.0769 9.42405 52.23 9.11821 52.23Z" fill="#202C4E"/>
<path d="M41.6713 50.5957V51.5191V52.4264H41.0476C41.0476 52.4264 41.1593 52.1132 41.1908 51.5191C41.2183 51.0161 41.0476 50.5957 41.0476 50.5957H41.6713Z" fill="#004C99"/>
<path d="M41.6713 50.5957V51.5191V52.4264H41.0476C41.0476 52.4264 41.1593 52.1132 41.1908 51.5191C41.2183 51.0161 41.0476 50.5957 41.0476 50.5957H41.6713Z" fill="#202C4E"/>
<path d="M40.2753 50.5957V51.5191V52.4264H39.0789C39.0789 52.4264 39.202 52.1161 39.222 51.5191C39.2404 50.9874 39.0789 50.5957 39.0789 50.5957H40.2753Z" fill="#202C4E"/>
<path d="M39.1777 52.3548H40.204V50.6675H39.18C39.2281 50.8194 39.3071 51.1326 39.294 51.5214C39.2802 51.9378 39.2172 52.2177 39.1777 52.3548ZM40.3472 52.4982H38.9744L39.0127 52.4001C39.0139 52.3972 39.1319 52.0915 39.1508 51.5169C39.168 51.0081 39.0145 50.6267 39.0127 50.6227L38.9727 50.5241H40.3472V52.4982Z" fill="#202C4E"/>
<path fill-rule="evenodd" clip-rule="evenodd" d="M24.9274 23.9817L20.8101 22.9803L22.6273 22.4205C23.3559 22.2462 24.05 22.1074 24.8226 22.0231C25.9612 18.3341 31.1783 19.3819 31.1783 23.0606C31.1783 24.7015 30.1697 25.6008 28.7121 25.9925C28.6422 27.5445 29.235 29.0087 29.3759 29.7767C29.5036 30.1248 28.9194 29.9516 28.9022 30.2492C29.125 31.8557 30.1617 33.0286 31.0253 33.9961C30.8822 34.3007 30.4211 34.0977 30.4194 34.506C31.0712 35.2115 32.6456 35.7001 33.3065 36.3969C31.5734 38.6056 29.9646 40.1972 28.2315 42.2172C27.3112 41.116 23.6852 37.4385 22.8278 36.3384C23.396 35.5183 24.9154 35.1289 25.6199 34.4441C25.6497 34.0678 25.0489 34.2496 25.0134 33.9388C25.7699 32.7699 26.7968 31.7777 27.2275 30.2837C27.2659 30.0175 26.676 30.0892 26.7631 29.8294C26.9664 29.2249 27.7934 27.5571 27.4795 25.9925C26.3725 24.9934 25.4572 25.4086 23.9097 25.7585L22.0426 26.102L24.9274 23.9817Z" fill="#202C4E"/>
<path fill-rule="evenodd" clip-rule="evenodd" d="M27.2275 22.3182C27.2275 22.6664 26.9446 22.9485 26.5952 22.9485C26.2458 22.9485 25.9629 22.6664 25.9629 22.3182C25.9629 21.9701 26.2458 21.6879 26.5952 21.6879C26.9446 21.6879 27.2275 21.9701 27.2275 22.3182Z" fill="white"/>
<path d="M26.5951 21.891C26.3585 21.891 26.1661 22.0826 26.1661 22.3183C26.1661 22.554 26.3585 22.7456 26.5951 22.7456C26.8316 22.7456 27.0246 22.554 27.0246 22.3183C27.0246 22.0826 26.8316 21.891 26.5951 21.891ZM26.5951 23.1522C26.1346 23.1522 25.76 22.7783 25.76 22.3183C25.76 21.8583 26.1346 21.4844 26.5951 21.4844C27.0555 21.4844 27.4301 21.8583 27.4301 22.3183C27.4301 22.7783 27.0555 23.1522 26.5951 23.1522Z" fill="white"/>
<path fill-rule="evenodd" clip-rule="evenodd" d="M24.9185 45.4783C24.1247 44.9145 23.2644 44.4172 22.3578 43.9653C22.6694 46.1785 20.7965 48.292 19.4179 46.33C18.7026 47.2683 17.1625 46.8645 17.0468 45.6681C16.5354 45.87 15.6207 46.6597 14.4861 46.8031C13.2691 46.9563 12.0016 46.7773 11.5463 45.8574C12.8092 45.5402 14.178 45.3286 14.9604 44.5325C11.9088 45.8035 6.94609 44.4757 7.37335 41.5054C8.38022 41.7939 9.0675 42.4013 10.3132 42.4517C8.50221 41.3419 4.46787 40.0784 6.14026 36.8712C7.4753 37.7465 8.63108 38.8006 10.5028 39.1407C8.95352 38.063 5.7107 36.0327 5.09673 33.1817C4.62251 30.9776 5.42262 28.0348 7.84758 28.5464C7.532 32.3512 8.71928 35.2476 11.5463 36.2088C10.7777 35.3061 9.6494 33.1393 9.6494 30.817C9.6494 28.5791 10.3957 26.0963 12.7788 26.7495C11.3968 32.1901 14.6494 36.8328 19.7971 36.9653C20.3824 36.9802 21.0233 36.7353 21.0233 36.7353C21.895 37.7671 27.1304 42.567 28.1733 44.014C30.3984 41.5352 33.0656 39.0145 35.4465 36.6344C41.9424 37.5343 44.75 33.1645 43.3176 26.7495C47.8616 25.8755 46.6537 34.7859 44.4556 36.2088C47.3897 35.3227 48.5518 32.369 48.2494 28.5464C50.5764 27.9775 51.487 30.9191 50.9996 33.1817C50.3885 36.019 47.2975 38.0011 45.4991 39.1407C47.4481 38.8465 48.5953 37.7522 49.9561 36.8712C51.6159 39.8823 47.7786 41.4257 45.7832 42.3571C46.8719 42.5595 47.7534 41.7365 48.7236 41.5054C49.1056 44.5715 44.2677 45.7249 41.2311 44.5325C41.6778 45.2546 43.3554 45.5672 44.5507 45.8574C43.64 47.52 39.9613 46.775 39.1446 45.5735C38.9871 46.6345 37.4951 47.4466 36.7735 46.33C35.4138 48.1372 33.3325 46.4544 33.8337 43.9653C32.8108 44.3008 32.1303 44.9776 31.1779 45.3836" fill="#202C4E"/>
<path fill-rule="evenodd" clip-rule="evenodd" d="M33.2626 46.605C32.6629 45.9597 31.36 45.4579 31.36 45.4579L28.2804 44.7829L28.2809 44.741L28.1847 44.7622L28.0885 44.741L28.0908 44.7829L25.0095 45.4579C25.0095 45.4579 23.7065 45.9597 23.1074 46.605C22.5456 47.2095 21.9345 48.0652 21.9322 48.7649C21.9293 49.4577 22.0318 49.7714 22.1584 50.1746C22.285 50.5778 22.7655 51.6635 23.2306 51.6767C23.6962 51.6899 23.8222 51.6331 24.0009 51.3343C24.1802 51.0355 23.9127 50.5572 23.8766 50.2343C23.8411 49.912 23.9127 49.6969 24.0439 49.4939C24.175 49.2903 24.5135 49.3298 24.6825 50.0221C24.8508 50.7143 24.8228 50.9088 24.915 51.0711C25.0072 51.2328 25.092 51.3458 25.2231 51.3458C25.3548 51.3458 25.6068 51.3877 25.6664 51.1961C25.726 51.0051 25.687 50.4591 25.6733 50.1448C25.6395 49.3923 25.7111 49.4101 25.7111 49.4101L25.876 49.5042C25.876 49.5042 26.0198 49.6034 26.1286 49.7714C26.3136 50.0576 26.2838 50.0227 26.3314 50.357C26.3795 50.6914 26.3033 51.0063 26.3107 51.0889C26.3199 51.1846 26.4791 51.3452 26.6452 51.3693C26.848 51.3997 27.1028 51.3303 27.1698 51.1961C27.2369 51.0625 27.4413 49.4101 27.2861 48.9559C27.191 48.6789 26.7168 47.9178 26.7168 47.9178C26.7168 47.9178 26.9808 47.7062 27.3571 47.6247C27.734 47.5433 28.2317 47.4383 28.2317 47.4383C28.2317 47.4383 28.636 47.5433 29.0129 47.6247C29.3892 47.7062 29.6526 47.9178 29.6526 47.9178C29.6526 47.9178 29.1784 48.6789 29.0839 48.9559C28.9287 49.4101 29.1326 51.0625 29.1996 51.1961C29.2672 51.3303 29.5221 51.3997 29.7248 51.3693C29.8903 51.3452 30.0495 51.1846 30.0587 51.0889C30.0667 51.0063 29.9906 50.6914 30.0381 50.357C30.0862 50.0227 30.0564 50.0576 30.2408 49.7714C30.3497 49.6034 30.494 49.5042 30.494 49.5042L30.6584 49.4101C30.6584 49.4101 30.73 49.3923 30.6967 50.1448C30.6824 50.4591 30.6435 51.0051 30.703 51.1961C30.7626 51.3877 31.0146 51.3458 31.1463 51.3458C31.2775 51.3458 31.3628 51.2328 31.455 51.0711C31.5472 50.9088 31.5192 50.7143 31.6876 50.0221C31.856 49.3298 32.1944 49.2903 32.3262 49.4939C32.4573 49.6969 32.5289 49.912 32.4928 50.2343C32.4573 50.5572 32.1899 51.0355 32.3685 51.3343C32.5478 51.6331 32.6732 51.6899 33.1389 51.6767C33.6039 51.6635 34.085 50.5778 34.2116 50.1746C34.3376 49.7714 34.4401 49.4577 34.4378 48.7649C34.4355 48.0652 33.8239 47.2095 33.2626 46.605Z" fill="#202C4E"/>
<path d="M32.1432 49.0817C32.3179 49.0817 32.4817 49.1741 32.5813 49.3283C32.7692 49.6191 32.8351 49.9087 32.7955 50.2684C32.7812 50.3985 32.7406 50.5356 32.701 50.6687C32.6489 50.8459 32.5768 51.0897 32.6295 51.1774C32.7314 51.3477 32.7469 51.3735 33.0269 51.3735C33.059 51.3735 33.0934 51.373 33.13 51.3718C33.2932 51.3667 33.7222 50.7163 33.921 50.0837L33.9278 50.0619C34.0481 49.6776 34.1357 49.3994 34.1334 48.7657C34.1317 48.2782 33.7228 47.5481 33.0395 46.8128C32.5327 46.2674 31.4342 45.816 31.2709 45.7506L28.185 45.0739V45.0744L28.1845 45.0739L25.0986 45.7506C24.9353 45.816 23.8351 46.2691 23.33 46.8128C22.6467 47.5481 22.2378 48.2782 22.236 48.7657C22.2343 49.4 22.3214 49.6782 22.4422 50.063L22.4485 50.0831C22.6473 50.7163 23.0762 51.3667 23.2395 51.3718C23.2761 51.373 23.3105 51.3735 23.3426 51.3735C23.6226 51.3735 23.6381 51.3477 23.74 51.1774C23.7927 51.0897 23.7211 50.8459 23.6685 50.6687C23.6289 50.5356 23.5888 50.3985 23.574 50.2684C23.5344 49.9087 23.6003 49.6191 23.7882 49.3283C23.8878 49.1741 24.0516 49.0817 24.2263 49.0817C24.389 49.0817 24.787 49.166 24.9777 49.95C25.0613 50.2924 25.0991 50.5224 25.1238 50.675C25.1473 50.8155 25.1593 50.8843 25.1793 50.9199C25.2194 50.9904 25.244 51.0248 25.2584 51.0415C25.2704 51.042 25.2836 51.0426 25.2973 51.0432C25.3259 51.0438 25.3609 51.0455 25.3867 51.0443C25.405 50.8723 25.3855 50.484 25.3763 50.3051L25.3689 50.1588C25.3363 49.4167 25.3935 49.2985 25.4846 49.2027L25.5745 49.1087L25.7481 49.1052L25.8254 49.1247L26.0487 49.2532C26.0682 49.267 26.2463 49.3931 26.3844 49.6065C26.5613 49.8801 26.5831 49.9351 26.6163 50.1932C26.6209 50.2271 26.6261 50.2666 26.6329 50.3142C26.6719 50.5849 26.6415 50.8379 26.6238 50.9887C26.622 51.0025 26.6209 51.0151 26.6192 51.0266C26.6404 51.0461 26.6707 51.0656 26.6891 51.0679C26.7732 51.0805 26.8597 51.0593 26.8987 51.042C26.9691 50.7283 27.1089 49.3788 26.9978 49.0548C26.937 48.877 26.6346 48.3619 26.4588 48.0792L26.3156 47.8498L26.5264 47.68C26.559 47.6536 26.8586 47.4208 27.2927 47.3267C27.6701 47.2453 28.169 47.1403 28.169 47.1403L28.2389 47.1254L28.3082 47.1437C28.3122 47.1443 28.7108 47.2476 29.0768 47.3267C29.5109 47.4208 29.8105 47.6536 29.8431 47.68L30.0544 47.8498L29.9113 48.0792C29.7349 48.3619 29.4324 48.877 29.3717 49.0548C29.2612 49.3788 29.4004 50.7283 29.4714 51.042C29.5103 51.0593 29.5985 51.0805 29.6804 51.0679C29.6988 51.0656 29.7291 51.0461 29.7503 51.0266C29.7492 51.0145 29.7475 51.0019 29.7457 50.9881C29.728 50.8373 29.6982 50.5849 29.7366 50.3142C29.7434 50.2666 29.7486 50.2271 29.7532 50.1932C29.7864 49.9351 29.8082 49.8801 29.9851 49.6065C30.1232 49.3931 30.3013 49.267 30.3213 49.2532L30.3431 49.2394L30.5441 49.1247L30.6209 49.1052H30.7887L30.8849 49.2027C30.976 49.2985 31.0332 49.4167 31.0006 50.1582L30.9931 50.3051C30.9846 50.484 30.9645 50.8723 30.9828 51.0443C31.0086 51.0455 31.0441 51.0438 31.0722 51.0432C31.0859 51.0426 31.0991 51.042 31.1117 51.0415C31.1255 51.0248 31.1501 50.9904 31.1902 50.9199C31.2108 50.8843 31.2228 50.8155 31.2457 50.675C31.2709 50.5224 31.3082 50.2924 31.3918 49.95C31.5825 49.166 31.9811 49.0817 32.1432 49.0817ZM33.0269 51.9832C32.5544 51.9832 32.3305 51.8639 32.1077 51.4911C31.917 51.1734 32.0281 50.7977 32.1174 50.4955C32.1506 50.3836 32.1821 50.2775 32.1902 50.2007C32.2131 49.9988 32.181 49.864 32.1203 49.7453C32.0819 49.8015 32.0292 49.9059 31.9834 50.0946C31.9055 50.414 31.8712 50.6222 31.8465 50.7736C31.815 50.964 31.7944 51.0897 31.7194 51.2221C31.6398 51.3609 31.4748 51.6506 31.1461 51.6506C31.1312 51.6506 31.1146 51.6511 31.0962 51.6523C31.0665 51.6534 31.0344 51.6546 31.0017 51.6546C30.5888 51.6546 30.4554 51.4246 30.4124 51.2869C30.35 51.0868 30.3626 50.7255 30.3855 50.2741L30.3924 50.1313C30.3929 50.1238 30.3929 50.1158 30.3935 50.1083C30.3717 50.1548 30.3672 50.1915 30.3568 50.2718C30.3523 50.3079 30.3465 50.3504 30.3397 50.4003C30.3122 50.5924 30.3351 50.7874 30.3505 50.9164C30.3603 50.9996 30.3672 51.0598 30.362 51.1172C30.3379 51.3701 30.0607 51.6288 29.7686 51.6712C29.7234 51.6781 29.6759 51.6815 29.6272 51.6815C29.3855 51.6815 29.0573 51.5903 28.9279 51.3334C28.8219 51.1218 28.6169 49.3799 28.7956 48.8575C28.8637 48.659 29.0796 48.2799 29.2337 48.0212C29.1535 47.9834 29.0562 47.9461 28.9485 47.9226C28.6587 47.8601 28.358 47.7855 28.2251 47.7517C28.0756 47.7832 27.712 47.8601 27.421 47.9226C27.3128 47.9461 27.216 47.9834 27.1358 48.0207C27.2899 48.2799 27.5063 48.659 27.5739 48.8575C27.7526 49.3799 27.5482 51.1218 27.4422 51.3334C27.3128 51.5903 26.984 51.6815 26.7423 51.6815C26.6936 51.6815 26.6461 51.6781 26.6003 51.6712C26.3088 51.6282 26.0316 51.3695 26.0075 51.1178C26.0023 51.0593 26.0098 50.9996 26.0195 50.917C26.0344 50.788 26.0579 50.5924 26.0304 50.4003C26.023 50.3504 26.0178 50.3079 26.0127 50.2718C26.0023 50.1915 25.9978 50.1548 25.9766 50.1083C25.9766 50.1158 25.9771 50.1238 25.9771 50.1313L25.984 50.2741C26.0069 50.7255 26.0195 51.0868 25.9571 51.2869C25.9141 51.4246 25.7807 51.6546 25.3678 51.6546C25.3351 51.6546 25.303 51.6534 25.2733 51.6523C25.2549 51.6511 25.2383 51.6506 25.2234 51.6506C24.8947 51.6506 24.7297 51.3609 24.6501 51.2221C24.5751 51.0897 24.5545 50.964 24.5235 50.7736C24.4983 50.6222 24.464 50.414 24.3867 50.0946C24.3403 49.9059 24.2876 49.8015 24.2492 49.7453C24.1885 49.864 24.157 49.9988 24.1793 50.2007C24.1879 50.2775 24.2189 50.3836 24.2521 50.4955C24.3414 50.7977 24.4525 51.1734 24.2618 51.4911C24.039 51.8639 23.8156 51.9832 23.3426 51.9832C23.3048 51.9832 23.2647 51.9826 23.2223 51.9815C22.4079 51.9586 21.8735 50.2833 21.8678 50.2661L21.8615 50.246C21.7349 49.8416 21.6249 49.4924 21.6272 48.764C21.6307 47.8784 22.4159 46.9011 22.8844 46.3976C23.5247 45.7088 24.8443 45.1955 24.9004 45.1737L24.9445 45.1605L27.7732 44.5405L27.7635 44.3575L28.185 44.4499L28.5934 44.3604L28.5894 44.5388L31.4691 45.1737C31.5252 45.1955 32.8448 45.7088 33.4857 46.3976C33.9536 46.9011 34.7388 47.8784 34.7423 48.764C34.7446 49.4918 34.6352 49.8411 34.5086 50.2448L34.5017 50.2661C34.4966 50.2833 33.9616 51.9586 33.1472 51.9815C33.1048 51.9826 33.0647 51.9832 33.0269 51.9832Z" fill="white"/>
<path fill-rule="evenodd" clip-rule="evenodd" d="M24.9126 44.989L26.0254 45.8493H28.1755L30.0386 45.7145L31.4904 44.7407L28.6176 44.1316L28.1846 44.4304L27.6245 44.014L24.9126 44.989Z" fill="#202C4E"/>
<path fill-rule="evenodd" clip-rule="evenodd" d="M23.2926 24.4924C23.2926 25.3647 22.5864 26.0719 21.7152 26.0719C20.8441 26.0719 20.1379 25.3647 20.1379 24.4924C20.1379 23.62 20.8441 22.9129 21.7152 22.9129C22.5864 22.9129 23.2926 23.62 23.2926 24.4924Z" fill="white"/>
<path d="M21.4825 7.55648H21.8078C21.975 7.55648 22.1005 7.51347 22.1829 7.42687C22.2654 7.34084 22.3067 7.19631 22.3067 6.99385V6.47193C22.3089 6.10717 22.1686 5.92421 21.8851 5.92421H21.4825V7.55648ZM20.6509 10.4729V5.16543H21.9057C22.3336 5.16543 22.6463 5.26579 22.8427 5.46538C23.0398 5.66555 23.1383 5.97296 23.1383 6.38762V6.8063C23.1383 7.35173 22.9567 7.71077 22.5936 7.88397C22.9619 8.0394 23.1457 8.41621 23.1457 9.01326V9.82997V9.86323C23.1457 10.1339 23.1749 10.3375 23.2345 10.4729H22.3914C22.3422 10.3226 22.3164 10.1058 22.3141 9.82251V8.99146C22.3141 8.75001 22.2717 8.5768 22.1864 8.47242C22.1016 8.36746 21.963 8.31527 21.7706 8.31527H21.4825V10.4729H20.6509Z" fill="#202C4E"/>
<path d="M24.7786 9.24829C24.7809 9.59585 24.9258 9.77078 25.2128 9.77308C25.5026 9.77308 25.6458 9.59815 25.6435 9.24829V6.38636C25.6435 6.0388 25.4991 5.86502 25.211 5.86502C24.923 5.86502 24.7786 6.0388 24.7786 6.38636V9.24829ZM23.947 9.19954V6.43855C23.947 6.01414 24.0553 5.68608 24.2729 5.45437C24.49 5.22209 24.8027 5.10624 25.211 5.10624C25.6194 5.10624 25.9321 5.22209 26.1492 5.45437C26.3662 5.68608 26.4751 6.01414 26.4751 6.43855V9.19954C26.4751 9.62396 26.3662 9.95202 26.1492 10.1843C25.9321 10.416 25.6194 10.5319 25.211 10.5319C24.8027 10.5319 24.49 10.416 24.2729 10.1843C24.0553 9.95202 23.947 9.62396 23.947 9.19954Z" fill="#202C4E"/>
<path d="M26.9036 5.16563H27.7352L28.3743 7.58594L29.0135 5.16563H29.8451L28.7512 8.71465V10.4725H27.9202V8.71465L26.9036 5.16563Z" fill="#202C4E"/>
<path d="M31.0399 8.78888H31.8423L31.4397 6.11737L31.0399 8.78888ZM29.9563 10.4728L30.7994 5.16588H32.084L32.9276 10.4728H32.096L31.9523 9.51785H30.9305L30.7879 10.4728H29.9563Z" fill="#202C4E"/>
<path d="M33.4963 10.4728V5.16594H34.3279V9.71406H35.6991V10.4728H33.4963Z" fill="#202C4E"/>
<path d="M12.5339 15.9672V11.9256H13.3655V16.0223C13.3678 16.3681 13.5122 16.5408 13.798 16.5408C14.086 16.5408 14.2292 16.3681 14.2264 16.0223V11.9256H15.058V15.9672C15.058 16.3968 14.9463 16.726 14.7224 16.9554C14.4984 17.1849 14.184 17.2996 13.7779 17.2996C13.3724 17.2996 13.0637 17.1849 12.8518 16.9554C12.6399 16.726 12.5339 16.3968 12.5339 15.9672Z" fill="#202C4E"/>
<path d="M15.8782 15.9599V13.1989C15.8782 12.7699 15.9841 12.4401 16.1966 12.2107C16.4085 11.9813 16.7178 11.8666 17.1244 11.8666C17.5311 11.8666 17.8467 11.9813 18.0706 12.2107C18.294 12.4401 18.4062 12.7699 18.4062 13.1989V13.7174H17.5746V13.1473C17.5746 12.7992 17.4303 12.6254 17.1422 12.6254C16.8541 12.6254 16.7098 12.7998 16.7098 13.1479V16.015C16.7121 16.3608 16.857 16.5335 17.1439 16.5335C17.4337 16.5335 17.5769 16.3602 17.5746 16.0138V15.2533H18.4062V15.9599C18.4062 16.3895 18.294 16.7187 18.0706 16.9481C17.8467 17.1775 17.5311 17.2922 17.1244 17.2922C16.7178 17.2922 16.4085 17.1775 16.1966 16.9481C15.9841 16.7187 15.8782 16.3895 15.8782 15.9599Z" fill="#202C4E"/>
<path d="M19.0818 15.9599V13.1989C19.0818 12.7699 19.1877 12.4401 19.4002 12.2107C19.6121 11.9813 19.9214 11.8666 20.3281 11.8666C20.7347 11.8666 21.0503 11.9813 21.2742 12.2107C21.4976 12.4401 21.6098 12.7699 21.6098 13.1989V13.7174H20.7782V13.1473C20.7782 12.7992 20.6339 12.6254 20.3458 12.6254C20.0577 12.6254 19.9134 12.7998 19.9134 13.1479V16.015C19.9157 16.3608 20.0606 16.5335 20.3475 16.5335C20.6373 16.5335 20.7805 16.3602 20.7782 16.0138V15.2533H21.6098V15.9599C21.6098 16.3895 21.4976 16.7187 21.2742 16.9481C21.0503 17.1775 20.7347 17.2922 20.3281 17.2922C19.9214 17.2922 19.6121 17.1775 19.4002 16.9481C19.1877 16.7187 19.0818 16.3895 19.0818 15.9599Z" fill="#202C4E"/>
<path d="M22.3154 17.233V11.9261H23.147V16.4742H24.5182V17.233H22.3154Z" fill="#202C4E"/>
<path d="M24.9614 17.233V11.9261H27.2306V12.6843H25.793V14.1612H26.9351V14.92H25.793V16.4742H27.2306V17.233H24.9614Z" fill="#202C4E"/>
<path d="M28.8271 15.9599V15.6342H29.6811V16.0133C29.6811 16.3602 29.814 16.5335 30.0803 16.5335H30.0837C30.3472 16.5335 30.4795 16.3608 30.4795 16.015C30.4795 15.8171 30.4222 15.6324 30.3082 15.4592C30.1943 15.2866 30.0585 15.1283 29.8999 14.9849L29.472 14.5404C29.2951 14.385 29.1473 14.1923 29.0282 13.9629C28.909 13.7329 28.8495 13.4788 28.8495 13.1995C28.8495 12.7699 28.9617 12.4407 29.1868 12.2107C29.4119 11.9813 29.7172 11.8666 30.1032 11.8666C30.4892 11.8666 30.7859 11.9813 30.9927 12.2107C31.2 12.4401 31.3031 12.7699 31.3031 13.1989V13.3693H30.5161V13.1473C30.5161 12.7992 30.377 12.6254 30.0986 12.6254C29.8203 12.6254 29.6811 12.7998 29.6811 13.1479C29.6811 13.2936 29.7114 13.4324 29.7716 13.5643C29.8323 13.6968 29.9108 13.8161 30.0076 13.9222C30.1043 14.0283 30.2109 14.1332 30.3271 14.237C30.4434 14.3403 30.558 14.4492 30.6714 14.5628C30.7848 14.6764 30.8896 14.7979 30.9858 14.9276C31.0814 15.0572 31.1599 15.2103 31.22 15.387C31.2807 15.5636 31.3111 15.7557 31.3111 15.9634C31.3111 16.3912 31.2046 16.7199 30.9927 16.9487C30.7807 17.1775 30.4818 17.2922 30.0958 17.2922C29.7092 17.2922 29.4016 17.1775 29.1719 16.9481C28.9417 16.7187 28.8271 16.3895 28.8271 15.9599Z" fill="#202C4E"/>
<path d="M32.8995 14.4832H33.2947C33.4304 14.4832 33.5318 14.4448 33.5999 14.3685C33.6675 14.2922 33.7013 14.1626 33.7013 13.9796V13.1842C33.7013 13.0018 33.6675 12.8727 33.5999 12.7976C33.5318 12.7219 33.4304 12.6846 33.2947 12.6846H32.8995V14.4832ZM32.0679 17.2327V11.9258H33.2929C34.1194 11.9258 34.5329 12.364 34.5329 13.2409V13.9303C34.5329 14.805 34.12 15.242 33.2941 15.242H32.8995V17.2327H32.0679Z" fill="#202C4E"/>
<path d="M35.9962 16.0085C35.9985 16.356 36.1434 16.531 36.4303 16.5333C36.7201 16.5333 36.8633 16.3583 36.861 16.0085V13.1466C36.861 12.799 36.7167 12.6252 36.4286 12.6252C36.1405 12.6252 35.9962 12.799 35.9962 13.1466V16.0085ZM35.1646 15.9597V13.1987C35.1646 12.7743 35.2734 12.4463 35.4904 12.2146C35.7075 11.9823 36.0202 11.8664 36.4286 11.8664C36.8369 11.8664 37.1496 11.9823 37.3667 12.2146C37.5838 12.4463 37.6926 12.7743 37.6926 13.1987V15.9597C37.6926 16.3842 37.5838 16.7122 37.3667 16.9445C37.1496 17.1762 36.8369 17.2921 36.4286 17.2921C36.0202 17.2921 35.7075 17.1762 35.4904 16.9445C35.2734 16.7122 35.1646 16.3842 35.1646 15.9597Z" fill="#202C4E"/>
<path d="M39.348 14.3167H39.6733C39.8405 14.3167 39.9659 14.2737 40.0484 14.1871C40.1309 14.101 40.1721 13.9565 40.1721 13.754V13.2321C40.1744 12.8674 40.0341 12.6844 39.7506 12.6844H39.348V14.3167ZM38.5164 17.2331V11.9256H39.7712C40.199 11.9256 40.5118 12.026 40.7082 12.2256C40.9052 12.4257 41.0037 12.7332 41.0037 13.1478V13.5665C41.0037 14.1119 40.8222 14.471 40.4591 14.6442C40.8273 14.7996 41.0112 15.1758 41.0112 15.7735V16.5902V16.6234C41.0112 16.8941 41.041 17.0977 41.1 17.2331H40.2569C40.2076 17.0828 40.1819 16.866 40.1796 16.5827V15.7517C40.1796 15.5102 40.1372 15.337 40.0519 15.2326C39.9671 15.1277 39.8285 15.0755 39.6361 15.0755H39.348V17.2331H38.5164Z" fill="#202C4E"/>
<path d="M41.3953 12.6845V11.9257H43.9714V12.6845H43.0991V17.2332H42.2675V12.6845H41.3953Z" fill="#202C4E"/>
<path d="M23.4127 59.8179H22.5461V59.2294C23.2472 59.2294 23.4957 59.0786 23.6842 58.5653H24.2414V63.8475H23.4127V59.8179Z" fill="#202C4E"/>
<path d="M26.797 60.6933V59.7579C26.797 59.4103 26.6538 59.2445 26.3674 59.2445C26.0811 59.2445 25.9379 59.4103 25.9379 59.7579V60.6933C25.9379 61.0477 26.0811 61.2141 26.3674 61.2141C26.6538 61.2141 26.797 61.0477 26.797 60.6933ZM25.124 62.5945V62.4965H25.9081V62.6479C25.9081 63.0247 26.0736 63.1681 26.3371 63.1681C26.6315 63.1681 26.797 63.0247 26.797 62.5194V61.5083C26.6315 61.8174 26.3749 61.9683 26.0284 61.9683C25.4178 61.9683 25.1091 61.5381 25.1091 60.761V59.8181C25.1091 58.9727 25.5536 58.4898 26.3674 58.4898C27.1813 58.4898 27.6257 58.9727 27.6257 59.8181V62.5492C27.6257 63.4399 27.2191 63.9229 26.36 63.9229C25.5461 63.9229 25.124 63.4399 25.124 62.5945Z" fill="#202C4E"/>
<path d="M30.0804 62.6476V59.765C30.0804 59.3876 29.9149 59.2442 29.6509 59.2442C29.3874 59.2442 29.2213 59.3876 29.2213 59.765V62.6476C29.2213 63.025 29.3874 63.1684 29.6509 63.1684C29.9149 63.1684 30.0804 63.025 30.0804 62.6476ZM28.3926 62.5948V59.8178C28.3926 58.973 28.837 58.49 29.6509 58.49C30.4647 58.49 30.9092 58.973 30.9092 59.8178V62.5948C30.9092 63.4396 30.4647 63.9225 29.6509 63.9225C28.837 63.9225 28.3926 63.4396 28.3926 62.5948Z" fill="#202C4E"/>
<path d="M32.9933 59.3199H31.3203V58.5652H33.8071V59.2895L32.511 63.8474H31.6445L32.9933 59.3199Z" fill="#202C4E"/>
<path d="M22.2466 25.5822L22.3353 25.5249C22.5753 25.37 22.864 25.1842 23.0833 24.8097C22.955 25.3643 22.498 25.7956 21.9235 25.881C21.9831 25.795 22.0822 25.6912 22.2466 25.5822ZM21.0221 25.1911C21.1458 24.8464 21.1314 24.5028 21.1183 24.1994C21.1062 23.9299 21.0965 23.697 21.1893 23.5531C21.4178 23.1992 21.7196 23.1137 21.8474 23.0931C22.2173 23.1281 22.5524 23.3047 22.7884 23.5863C22.8348 23.6534 23.0575 24.009 22.8869 24.4266C22.7036 24.8751 22.4086 25.0655 22.1475 25.2335L22.057 25.2926C21.734 25.5065 21.5931 25.7245 21.5324 25.8856C21.2552 25.8495 20.9934 25.7296 20.7838 25.5432C20.8806 25.4738 20.955 25.3781 21.0221 25.1911ZM20.8989 23.365C20.746 23.6018 20.7586 23.8995 20.7723 24.2149C20.7849 24.4988 20.7975 24.7931 20.6967 25.0735C20.6509 25.2014 20.6171 25.2433 20.5547 25.28C20.3949 25.046 20.3113 24.7747 20.3113 24.4925C20.3113 24.0262 20.5444 23.5972 20.9161 23.3386C20.9104 23.3472 20.9046 23.3564 20.8989 23.365ZM23.0077 23.4206C23.0037 23.4154 23.0014 23.412 23.0003 23.4108L22.9991 23.4114C22.7311 23.0925 22.3468 22.8752 21.9127 22.8241V22.8115C21.9075 22.8115 21.8794 22.8121 21.8359 22.8178C21.7964 22.8144 21.7563 22.8115 21.7156 22.8115C20.7895 22.8115 20.0364 23.5657 20.0364 24.4925C20.0364 25.4194 20.7895 26.173 21.7156 26.173C22.6412 26.173 23.3937 25.4194 23.3937 24.4925C23.3937 24.0853 23.2488 23.7119 23.0077 23.4206Z" fill="#202C4E"/>
<path fill-rule="evenodd" clip-rule="evenodd" d="M20.9048 36.6343L28.1734 44.0139L35.4465 36.6343L34.1871 36.6727L33.3068 36.3974L28.2083 41.6911L22.828 36.3383L21.9317 36.5293L20.9048 36.6343Z" fill="white"/>
<path d="M51.3963 33.2675C51.772 31.5233 51.3677 29.6559 50.4141 28.7262C49.8093 28.1366 49.0269 27.9382 48.1529 28.1515L47.8173 28.2336L47.8448 28.5788C47.9926 30.4457 47.8683 33.4665 45.8546 35.0454C46.8007 33.0931 47.1541 29.9633 46.4107 28.1085C45.8425 26.6913 44.7165 26.0673 43.2412 26.3506L42.8305 26.4292L42.9216 26.8381C43.6656 30.1704 43.2337 32.9199 41.7068 34.5808C40.3672 36.0376 38.2223 36.6089 35.5018 36.2315L35.3019 36.2039L35.1593 36.3468C34.5293 36.9771 33.8644 37.6315 33.2212 38.2641C31.5167 39.9417 29.7584 41.672 28.1937 43.3863C27.3255 42.362 25.495 40.584 23.8553 38.9925C22.7287 37.8982 21.6646 36.8652 21.333 36.4724L21.1468 36.2527L20.8782 36.3554C20.7213 36.4156 20.2218 36.5704 19.8078 36.559C17.5598 36.501 15.6194 35.5398 14.3433 33.8525C12.9401 31.9959 12.5134 29.4437 13.1726 26.8496L13.2706 26.4631L12.8863 26.3575C12.0146 26.1184 11.2666 26.2319 10.6618 26.6936C9.38171 27.6721 9.24311 29.9031 9.24311 30.8173C9.24311 32.4467 9.77919 34.0102 10.3743 35.1475C8.74311 33.9368 7.99627 31.6644 8.25171 28.58L8.28149 28.2227L7.93098 28.1487C7.02434 27.9577 6.22767 28.1762 5.62687 28.7807C4.55815 29.8561 4.39721 31.86 4.70019 33.2675C5.01347 34.7219 5.94244 35.9545 7.00372 36.9685C6.79467 36.8222 6.58047 36.6737 6.36283 36.5309L5.98769 36.2854L5.78036 36.6828C5.33134 37.5443 5.22366 38.3604 5.45906 39.1083C5.70877 39.9004 6.31129 40.5255 7.0295 41.0451L6.97165 41.4478C6.81987 42.5036 7.2351 43.4471 8.17382 44.1761C9.07816 44.8786 10.3634 45.299 11.6978 45.4017C11.6142 45.4218 11.5306 45.4418 11.4476 45.4631L10.9584 45.5858L11.1824 46.0377C11.6538 46.9892 12.8765 47.4154 14.5369 47.206C15.408 47.0965 16.1405 46.6549 16.6755 46.3331C16.715 46.309 16.7534 46.2861 16.7906 46.2637C16.9928 46.7076 17.3794 47.0431 17.8805 47.186C18.4103 47.3368 18.959 47.2347 19.3828 46.9267C19.8244 47.3861 20.27 47.5117 20.6239 47.5117C20.865 47.5117 21.0643 47.4538 21.1915 47.4033C22.0913 47.0466 22.7304 45.8926 22.7923 44.6469C23.4893 45.0209 24.1124 45.404 24.684 45.81L25.1531 45.1751C24.3845 44.6291 23.5294 44.0952 22.5391 43.6014L21.8484 43.2567L21.9561 44.0218C22.1296 45.2526 21.5346 46.3928 20.8931 46.6474C20.404 46.8407 20.0013 46.4541 19.7499 46.0962L19.4309 45.6426L19.0953 46.083C18.8164 46.449 18.4 46.4891 18.1027 46.4042C17.7316 46.2981 17.4876 46.0085 17.451 45.6288L17.3988 45.092L16.8983 45.2899C16.7093 45.3644 16.5002 45.4906 16.2574 45.6363C15.758 45.9368 15.1365 46.3113 14.4355 46.3996C13.9453 46.4616 12.9029 46.5281 12.2815 46.0985C13.3851 45.8393 14.5174 45.5629 15.2494 44.8178L16.6572 43.3857L14.8044 44.1577C12.8909 44.9543 10.1394 44.6745 8.67095 43.5337C8.12972 43.1127 7.82617 42.6235 7.76489 42.0746C7.91723 42.1371 8.06729 42.2054 8.22192 42.2759C8.81413 42.5443 9.42581 42.8225 10.2969 42.8581L11.8571 42.9217L10.5249 42.105C10.2059 41.9094 9.8273 41.7127 9.42639 41.5045C8.16866 40.8519 6.60338 40.0392 6.23339 38.8634C6.0988 38.4367 6.124 37.9802 6.31243 37.4772C6.44072 37.5661 6.56844 37.6556 6.69387 37.7433C7.75171 38.4855 8.84563 39.2528 10.4304 39.5408L12.2689 39.8746L10.7345 38.8072C10.6194 38.7269 10.4951 38.642 10.3634 38.5514C8.74197 37.4393 6.02835 35.5788 5.49399 33.096C5.183 31.6535 5.48082 30.0798 6.20189 29.3542C6.52892 29.025 6.93442 28.8719 7.41609 28.8977C7.18986 32.8534 8.63544 35.6482 11.4155 36.5939L12.8107 37.0683L11.8548 35.9453C11.1314 35.0953 10.0552 33.0283 10.0552 30.8173C10.0552 29.1655 10.4659 27.8659 11.1538 27.34C11.467 27.1008 11.841 27.0091 12.2889 27.0641C11.7145 29.7563 12.219 32.3888 13.6961 34.3428C15.1239 36.2315 17.2872 37.3074 19.7871 37.3717C20.2012 37.3826 20.6296 37.2822 20.8977 37.2036C21.357 37.698 22.2631 38.5784 23.2906 39.5757C25.0477 41.282 27.2344 43.4058 27.8444 44.2518L28.1388 44.6601L28.4755 44.2856C30.1021 42.4738 31.9766 40.6282 33.7899 38.8439C34.3867 38.2572 35.0018 37.6515 35.5917 37.0631C38.4926 37.4216 40.8105 36.7557 42.3036 35.1314C43.9468 33.3449 44.4743 30.5042 43.8053 27.098C44.6776 27.0555 45.2876 27.4891 45.6575 28.4113C46.5756 30.7015 45.5659 35.0058 44.2354 35.8679L41.8248 37.4279L44.5728 36.598C47.4599 35.7262 48.9101 32.9945 48.6793 28.8874C49.1335 28.853 49.5246 28.9941 49.8477 29.3089C50.6002 30.0419 50.9175 31.6346 50.6031 33.096C50.0223 35.7927 46.9387 37.7473 45.2818 38.7975L43.6512 39.831L45.5596 39.5425C47.1936 39.2959 48.2898 38.5245 49.35 37.7783C49.4949 37.6768 49.6426 37.573 49.7915 37.4703C49.9845 37.9641 50.008 38.4212 49.8643 38.8577C49.4107 40.2393 47.3362 41.1943 45.964 41.8263C45.8414 41.8825 45.724 41.9364 45.6117 41.9886L44.4634 42.5248L45.7091 42.7566C46.5344 42.9108 47.2429 42.5742 47.8677 42.2782C48.0246 42.2042 48.177 42.132 48.3271 42.0683C48.2652 42.6413 47.9634 43.1414 47.425 43.5595C46.027 44.6475 43.3151 44.9142 41.3792 44.1543L40.2441 43.7086L40.8861 44.7467C41.338 45.4762 42.5974 45.8135 43.7767 46.0922C43.3958 46.3308 42.9038 46.3962 42.5854 46.4117C41.2664 46.4753 39.858 45.9007 39.4806 45.3449L38.8964 44.4852L38.7435 45.5135C38.6799 45.9397 38.2916 46.3474 37.8592 46.4409C37.5511 46.508 37.2996 46.3962 37.1141 46.1089L36.7991 45.6214L36.4497 46.0853C36.0453 46.6222 35.5705 46.8046 35.1118 46.5987C34.4921 46.3193 33.9732 45.33 34.2315 44.0453L34.369 43.3616L33.7074 43.579C33.0895 43.7815 32.5958 44.0935 32.1193 44.3951C31.755 44.6251 31.3907 44.9033 30.9996 45.0702L31.3369 45.7573C31.7888 45.5651 32.1771 45.3197 32.5522 45.0822C32.8197 44.913 33.0786 44.7496 33.3524 44.6085C33.3157 45.9666 33.9852 46.9829 34.779 47.3397C35.4629 47.6476 36.1834 47.4957 36.7744 46.9382C37.1227 47.2261 37.5671 47.3362 38.031 47.2353C38.5602 47.1206 39.0276 46.7633 39.3036 46.301C40.0911 46.8923 41.4164 47.2823 42.6243 47.2238C43.7108 47.1716 44.5212 46.7558 44.9061 46.0527L45.161 45.5869L44.6461 45.4625C44.5447 45.4378 44.4393 45.4126 44.3317 45.3874C45.7051 45.3088 47.0247 44.9004 47.9233 44.2013C48.8448 43.4844 49.2606 42.5346 49.1266 41.4552L49.075 41.0428C49.7887 40.5152 50.3826 39.8809 50.6357 39.1118C50.8883 38.3426 50.7789 37.5231 50.3116 36.6748L50.1014 36.2934L49.736 36.5297C49.5349 36.6599 49.3379 36.7953 49.1449 36.9295C50.1902 35.9241 51.0871 34.703 51.3963 33.2675Z" fill="white"/>
</svg>
